<svg width="18" height="18" viewBox="0 0 18 18" fill="none" xmlns="http://www.w3.org/2000/svg">
<path d="M8.24282 6.74251V9.74251C8.24282 10.155 8.57281 10.4925 8.99282 10.4925C9.40532 10.4925 9.74282 10.155 9.74282 9.74251V6.73501C9.74282 6.31501 9.40532 5.98501 8.99282 5.98501C8.57281 5.98501 8.24282 6.31501 8.24282 6.73501V6.74251ZM8.99282 13.4925H9.00032C9.41282 13.4925 9.75032 13.155 9.75032 12.7425C9.75032 12.3225 9.41282 11.9925 9.00032 11.9925H8.99282C8.57281 11.9925 8.24282 12.3225 8.24282 12.7425C8.24282 13.155 8.57281 13.4925 8.99282 13.4925ZM7.29781 2.53501L1.12531 13.185C0.577815 14.1225 0.487815 14.31 0.540315 14.7675C0.577815 15.1875 0.802815 15.57 1.14781 15.825C1.51531 16.0875 1.71781 16.11 2.80532 16.11H15.1353C16.2153 16.11 16.4253 16.0875 16.7928 15.8175C17.1303 15.5625 17.3553 15.18 17.4003 14.7525C17.4453 14.295 17.3553 14.1075 16.8153 13.1625L10.6428 2.50501C10.0953 1.56751 9.97532 1.39501 9.56282 1.20751C9.17282 1.02751 8.73032 1.02751 8.34032 1.20751C7.92032 1.38751 7.80032 1.56001 7.26032 2.49751L7.29781 2.53501ZM8.59531 3.28501C8.90282 2.74501 9.00782 2.59501 8.97782 2.61001C8.97782 2.60251 8.97782 2.60251 8.97782 2.60251C8.94782 2.58751 9.05282 2.73751 9.36032 3.27001L15.5253 13.92C15.8328 14.4525 15.9078 14.6175 15.9153 14.595C15.9153 14.5875 15.9078 14.5875 15.9078 14.595C15.9303 14.5725 15.7428 14.5875 15.1203 14.5875H2.78281C2.16031 14.5875 1.97282 14.565 1.99531 14.5875C1.98782 14.58 1.98782 14.58 1.98782 14.58C1.98782 14.6025 2.06281 14.4375 2.37781 13.8975L8.54282 3.24001L8.59531 3.28501Z" fill="#DD1243"/>
</svg>
