<svg width="16" height="16" viewBox="0 0 16 16" fill="none" xmlns="http://www.w3.org/2000/svg">
<g clip-path="url(#clip0_141_46)">
<path d="M16 8C16 12.4193 12.418 16 8 16C3.58203 16 0 12.4193 0 8C0 3.58332 3.58203 0 8 0C12.418 0 16 3.58332 16 8Z" fill="#DC3232"/>
<path d="M10.8284 9.41435L6.58577 5.17171C6.19524 4.78118 5.56208 4.78118 5.17156 5.17171C4.78103 5.56223 4.78103 6.1954 5.17156 6.58592L9.4142 10.8286C9.80472 11.2191 10.4379 11.2191 10.8284 10.8286C11.2189 10.438 11.2189 9.80487 10.8284 9.41435Z" fill="white"/>
<path d="M10.8284 6.58592C11.219 6.1954 11.219 5.56223 10.8284 5.17171C10.4379 4.78118 9.80476 4.78118 9.41423 5.17171L5.17159 9.41435C4.78107 9.80487 4.78107 10.438 5.17159 10.8286C5.56211 11.2191 6.19528 11.2191 6.5858 10.8286L10.8284 6.58592Z" fill="white"/>
</g>
<defs>
<clipPath id="clip0_141_46">
<rect width="16" height="16" fill="white"/>
</clipPath>
</defs>
</svg>
