<svg width="14" height="14" viewBox="0 0 14 14" fill="none" xmlns="http://www.w3.org/2000/svg">
<path d="M4.6 4.6V2.92C4.6 2.24794 4.6 1.9119 4.73079 1.65521C4.84584 1.42941 5.02941 1.24584 5.25521 1.13079C5.5119 1 5.84794 1 6.52 1H11.08C11.7521 1 12.0881 1 12.3448 1.13079C12.5706 1.24584 12.7542 1.42941 12.8692 1.65521C13 1.9119 13 2.24794 13 2.92V7.48C13 8.15206 13 8.48812 12.8692 8.7448C12.7542 8.97058 12.5706 9.15418 12.3448 9.2692C12.0881 9.4 11.7521 9.4 11.08 9.4H9.4M2.92 13H7.48C8.15206 13 8.48812 13 8.7448 12.8692C8.97058 12.7542 9.15418 12.5706 9.2692 12.3448C9.4 12.0881 9.4 11.7521 9.4 11.08V6.52C9.4 5.84794 9.4 5.5119 9.2692 5.25521C9.15418 5.02941 8.97058 4.84584 8.7448 4.73079C8.48812 4.6 8.15206 4.6 7.48 4.6H2.92C2.24794 4.6 1.9119 4.6 1.65521 4.73079C1.42941 4.84584 1.24584 5.02941 1.13079 5.25521C1 5.5119 1 5.84794 1 6.52V11.08C1 11.7521 1 12.0881 1.13079 12.3448C1.24584 12.5706 1.42941 12.7542 1.65521 12.8692C1.9119 13 2.24793 13 2.92 13Z" stroke="white" stroke-width="1.25" stroke-linecap="round" stroke-linejoin="round"/>
</svg>
