<svg width="223" height="66" viewBox="0 0 223 66" fill="none" xmlns="http://www.w3.org/2000/svg">
<g clip-path="url(#clip0_2965_57930)">
<path d="M137.835 27.3685C136.523 29.9242 134.562 32.0829 132.165 33.6104C129.717 35.17 126.946 35.9819 124.151 35.9538C120.024 35.9277 116.167 34.2507 113.291 31.2319C110.432 28.2321 108.843 24.2377 108.816 19.9839C108.789 15.7201 110.531 11.515 113.595 8.4475C116.521 5.51848 120.309 3.90519 124.26 3.90519C126.89 3.90519 129.511 4.65889 131.841 6.08452C134.112 7.47451 136.052 9.46315 137.45 11.8352L137.482 11.8899H141.539L141.465 11.7328C139.918 8.46206 137.5 5.68307 134.472 3.69644C131.387 1.67166 127.856 0.601318 124.26 0.601318C121.743 0.601318 119.281 1.11416 116.945 2.12529C114.701 3.09678 112.669 4.48226 110.908 6.24409C109.103 8.04907 107.684 10.1431 106.692 12.4684C105.664 14.8761 105.15 17.4052 105.163 19.985C105.191 25.1043 107.153 29.9201 110.688 33.5452C114.255 37.2023 119.036 39.2306 124.149 39.2572C124.193 39.2572 124.237 39.2572 124.282 39.2572C128 39.2572 131.615 38.1377 134.744 36.016C137.863 33.9004 140.284 30.9418 141.744 27.4598L141.808 27.3073H137.865L137.835 27.3675V27.3685Z" fill="#FFFDF7"/>
<path d="M39.8716 22.8457L39.8555 22.8723V38.4317H43.509V23.76L57.1649 1.59485L57.2683 1.42725H53.0785L39.8716 22.8457Z" fill="#FFFDF7"/>
<path d="M40.2173 16.9209L30.8168 1.48044L30.7845 1.42725H26.5947L38.1537 20.279L40.2173 16.9209Z" fill="#FFFDF7"/>
<path d="M173.384 4.22781C171.594 2.39573 169.042 1.42725 166.005 1.42725H151.724V16.0091H155.377V4.73111H166.005C169.872 4.73111 172.371 7.30335 172.371 11.2842C172.371 17.8482 165.885 18.8283 162.02 18.8283H151.724V38.4317H155.377V22.1321H162.02C166.883 22.1321 169.845 20.9554 171.473 19.9684C174.493 18.1378 176.024 15.2158 176.024 11.2842C176.024 8.43492 175.111 5.99465 173.384 4.22781H173.384Z" fill="#FFFDF7"/>
<path d="M179.009 38.4222L171.486 23.3441L171.439 23.2512L171.343 23.2914C170.137 23.7967 169.076 24.1369 168.099 24.3311L167.957 24.3592L174.998 38.4222H179.01H179.009Z" fill="#FFFDF7"/>
<path d="M65.3174 6.16479V38.4317H68.9705V11.2847L65.3174 6.16479Z" fill="#FFFDF7"/>
<path d="M94.9878 38.3745V1.42725H91.3342V31.7437L69.781 1.47391L69.7477 1.42725H65.3799L91.7539 38.3745H94.9878Z" fill="#FFFDF7"/>
<path d="M13.9494 18.4615C10.1299 16.5341 5.75703 14.3863 5.75703 9.98152C5.75703 6.52711 9.16041 4.19573 12.7408 4.25495C14.2395 4.28004 15.3956 4.3267 16.5987 4.49732L14.7167 1.44736C14.0776 1.34349 13.4289 1.28628 12.7867 1.28177V1.28076H12.6944V1.28177C7.3591 1.3204 2.32491 4.72564 2.32491 10.0362C2.32491 16.2039 7.69404 18.8469 12.3993 21.2149C16.2189 23.1423 19.9829 25.3447 19.9829 29.5297C19.9829 33.7148 16.3293 36.6333 12.1224 36.6333C8.41386 36.6333 5.03722 34.7058 3.59808 31.3468H0C1.66058 36.5781 6.53184 39.7168 12.1224 39.7168C18.1559 39.7168 23.4145 35.3667 23.4145 29.5297C23.4145 23.6928 18.6542 20.8842 13.9489 18.4615H13.9494Z" fill="#FFFDF7"/>
<path d="M192.79 35.5905L194.484 32.8521C190.695 29.8468 188.411 24.9688 188.515 19.313C188.681 11.3283 194.935 4.61066 202.685 3.89459V3.89258C203.594 3.80828 204.52 3.80677 205.455 3.89559L205.453 3.89459C207.533 4.09882 209.5 4.73862 211.269 5.72115L212.926 3.04353C210.658 1.79806 208.125 1.00872 205.452 0.81101L205.45 0.810006C204.521 0.739252 203.596 0.741259 202.683 0.81101H202.684C193.108 1.52708 185.303 9.62166 185.082 19.2583C184.941 26.1842 187.913 32.0768 192.789 35.5905H192.79Z" fill="#FFFDF7"/>
<path d="M215.443 4.69507L213.75 7.4309C217.287 10.3986 219.568 14.9103 219.568 19.8641C219.568 28.2893 213.369 35.1726 205.453 35.9433C204.544 36.0281 203.62 36.0873 202.685 35.9985C200.632 35.851 198.728 35.3181 197.023 34.4675L195.371 37.1376C197.562 38.213 200.026 38.8723 202.685 39.0269C203.615 39.0977 204.54 39.0956 205.452 39.0259L205.453 39.0269C215.306 38.3108 223 29.996 223 19.8641C223 13.7837 220.008 8.22826 215.443 4.69507Z" fill="#FFFDF7"/>
<path d="M2.23926 50.1504H6.85175C9.70479 50.1504 11.7861 51.0893 11.7861 54.0986V54.1839C11.7861 55.5709 11.2282 56.8088 9.46922 57.4065C11.7003 57.9399 12.5372 59.0709 12.5372 61.0561V61.1414C12.5372 64.0222 10.5633 65.4097 7.4959 65.4097H2.23926V50.1509V50.1504ZM6.85175 56.8088C9.10452 56.8088 9.96255 55.9979 9.96255 54.1197V54.0343C9.96255 52.3056 8.9542 51.6016 6.80887 51.6016H4.06276V56.8088H6.85175ZM7.45252 63.9585C9.6836 63.9585 10.7131 62.977 10.7131 61.1203V61.035C10.7131 59.1567 9.66191 58.2605 7.19476 58.2605H4.06276V63.9585H7.45252Z" fill="#FFFDF7"/>
<path d="M14.6816 61.3119V54.2481H16.4623V61.2266C16.4623 63.1902 17.2991 64.0648 19.0581 64.0648C20.6455 64.0648 22.1472 63.0191 22.1472 61.0129V54.2476H23.9278V65.4092H22.1472V63.6378C21.6322 64.6835 20.3882 65.6013 18.5859 65.6013C16.3548 65.6013 14.6816 64.385 14.6816 61.3119Z" fill="#FFFDF7"/>
<path d="M26.5879 50.7479C26.5879 50.1076 27.1241 49.5742 27.7677 49.5742C28.4114 49.5742 28.9476 50.1076 28.9476 50.7479C28.9476 51.3882 28.4114 51.9216 27.7677 51.9216C27.1241 51.9216 26.5879 51.3882 26.5879 50.7479ZM26.9097 54.248H28.6903V65.4096H26.9097V54.248Z" fill="#FFFDF7"/>
<path d="M31.7148 48.9124H33.5167V65.4091H31.7148V48.9124Z" fill="#FFFDF7"/>
<path d="M36.8845 62.6137V55.742H35.2754V54.2481H36.8845V51.7085H38.6651V54.2481H41.2826V55.742H38.6651V62.4431C38.6651 63.5315 39.1585 64.0649 40.0594 64.0649C40.6173 64.0649 41.046 63.9796 41.4324 63.83V65.3239C41.0677 65.4519 40.6385 65.5588 39.9091 65.5588C37.8712 65.5588 36.884 64.3635 36.884 62.6137H36.8845Z" fill="#FFFDF7"/>
<path d="M48.8552 62.6137V55.742H47.2461V54.2481H48.8552V51.7085H50.6358V54.2481H53.2533V55.742H50.6358V62.4431C50.6358 63.5315 51.1292 64.0649 52.0301 64.0649C52.588 64.0649 53.0167 63.9796 53.4031 63.83V65.3239C53.0384 65.4519 52.6092 65.5588 51.8798 65.5588C49.8419 65.5588 48.8547 64.3635 48.8547 62.6137H48.8552Z" fill="#FFFDF7"/>
<path d="M54.5835 59.925V59.7544C54.5835 56.4038 56.922 54.0564 60.0969 54.0564C63.2718 54.0564 65.6103 56.3828 65.6103 59.7333V59.9039C65.6103 63.276 63.2718 65.6019 60.0752 65.6019C56.8787 65.6019 54.583 63.1902 54.583 59.925H54.5835ZM63.7651 59.925V59.7754C63.7651 57.1932 62.328 55.5287 60.0964 55.5287C57.8648 55.5287 56.4277 57.1932 56.4277 59.7544V59.925C56.4277 62.4646 57.8219 64.1291 60.0964 64.1291C62.3709 64.1291 63.7651 62.443 63.7651 59.925Z" fill="#FFFDF7"/>
<path d="M74.5121 63.574V65.4096H72.7314V48.9128H74.5121V56.1263C75.1557 55.0378 76.6786 54.0563 78.3094 54.0563C81.2487 54.0563 83.4152 56.1905 83.4152 59.669V59.8396C83.4152 63.2544 81.3985 65.6018 78.3094 65.6018C76.4859 65.6018 75.1557 64.684 74.5121 63.5745V63.574ZM81.57 59.9249V59.7543C81.57 56.9372 80.0038 55.5286 78.1162 55.5286C76.0354 55.5286 74.4475 56.8945 74.4475 59.7543V59.9249C74.4475 62.7847 75.9492 64.129 78.1374 64.129C80.3256 64.129 81.57 62.6351 81.57 59.9249Z" fill="#FFFDF7"/>
<path d="M85.4102 61.3119V54.2481H87.1908V61.2266C87.1908 63.1902 88.0276 64.0648 89.7866 64.0648C91.374 64.0648 92.8757 63.0191 92.8757 61.0129V54.2476H94.6563V65.4092H92.8757V63.6378C92.3607 64.6835 91.1167 65.6013 89.3144 65.6013C87.0833 65.6013 85.4102 64.385 85.4102 61.3119Z" fill="#FFFDF7"/>
<path d="M97.3164 50.7479C97.3164 50.1076 97.8526 49.5742 98.4963 49.5742C99.1399 49.5742 99.6761 50.1076 99.6761 50.7479C99.6761 51.3882 99.1399 51.9216 98.4963 51.9216C97.8526 51.9216 97.3164 51.3882 97.3164 50.7479ZM97.6382 54.248H99.4189V65.4096H97.6382V54.248Z" fill="#FFFDF7"/>
<path d="M102.443 48.9124H104.245V65.4091H102.443V48.9124Z" fill="#FFFDF7"/>
<path d="M106.391 60.0529V59.8822C106.391 56.4675 108.536 54.0563 111.625 54.0563C113.491 54.0563 114.65 54.9525 115.294 56.041V48.9128H117.074V65.4096H115.294V63.4887C114.65 64.5771 113.084 65.6013 111.454 65.6013C108.514 65.6013 106.391 63.5314 106.391 60.0524V60.0529ZM115.358 59.9033V59.7327C115.358 56.8729 113.985 55.5286 111.797 55.5286C109.608 55.5286 108.235 57.0867 108.235 59.7969V59.9676C108.235 62.7847 109.759 64.129 111.646 64.129C113.727 64.129 115.358 62.7631 115.358 59.9033Z" fill="#FFFDF7"/>
<path d="M119.918 64.2019C119.918 63.5109 120.497 62.9348 121.192 62.9348C121.886 62.9348 122.465 63.5109 122.465 64.2019C122.465 64.8928 121.886 65.4689 121.192 65.4689C120.497 65.4689 119.918 64.8928 119.918 64.2019Z" fill="#FFFDF7"/>
</g>
<defs>
<clipPath id="clip0_2965_57930">
<rect width="223" height="65" fill="white" transform="translate(0 0.601318)"/>
</clipPath>
</defs>
</svg>
