<?xml version="1.0" encoding="utf-8"?>
<!-- Generator: Adobe Illustrator 27.6.1, SVG Export Plug-In . SVG Version: 6.00 Build 0)  -->
<svg version="1.1" id="Layer_1" xmlns="http://www.w3.org/2000/svg" xmlns:xlink="http://www.w3.org/1999/xlink" x="0px" y="0px"
	 viewBox="0 0 12 12" style="enable-background:new 0 0 12 12;" xml:space="preserve">
<style type="text/css">
	.st0{fill:#101E2A;}
</style>
<g>
	<g>
		<path class="st0" d="M6.0002561,12C2.6917992,12,0,9.3082008,0,6.0002561C0,2.6917992,2.6917992,0,6.0002561,0
			C9.3082008,0,12,2.6917992,12,6.0002561C12,9.3082008,9.3082008,12,6.0002561,12z M6.0002561,0.8280097
			c-2.8519769,0-5.1722465,2.3202696-5.1722465,5.1722465c0,2.852488,2.3202696,5.1727576,5.1722465,5.1727576
			c2.852488,0,5.1727576-2.3202696,5.1727576-5.1727576C11.1730137,3.1482792,8.8527441,0.8280097,6.0002561,0.8280097z"/>
	</g>
</g>
<g>
	<g>
		<path class="st0" d="M5.5441804,8.212059l-0.190032-1.9034824c0.297894-0.0743208,0.5623484-0.1600595,0.79316-0.2569108
			c0.2308116-0.0967493,0.4302235-0.2047129,0.597827-0.3239927C6.9125347,5.6086993,7.0522041,5.4801421,7.16394,5.3423076
			c0.1117358-0.1377325,0.1955376-0.2866797,0.2514052-0.4468408c0.0558677-0.1601615,0.0838017-0.3295999,0.0838017-0.5083156
			c0-0.2606826-0.0634122-0.4952664-0.190032-0.7038534C7.1824946,3.474915,7.0036769,3.3129187,6.7728653,3.1973088
			C6.5420537,3.082005,6.2851429,3.0242002,6.0021338,3.0242002c-0.335207,0-0.6573648,0.1005213-0.966269,0.3016658
			C4.726553,3.5269086,4.456593,3.8285747,4.2257814,4.230762L3.611439,3.7056246
			c0.3127782-0.4691675,0.6832597-0.8358765,1.1116474-1.1003313c0.4281845-0.2643526,0.8730879-0.39658,1.3349152-0.39658
			c0.4469428,0,0.8471928,0.0968511,1.2009544,0.2904515c0.3535581,0.1937025,0.6347322,0.454283,0.8433189,0.7819457
			c0.2085867,0.3278668,0.3129826,0.6965129,0.3129826,1.1060407c0,0.2607841-0.0503626,0.5120878-0.1508846,0.7540116
			C8.1638517,5.3832908,8.0203085,5.6104321,7.8343539,5.8226895C7.6479921,6.0349464,7.4281907,6.2212062,7.1751542,6.3812656
			C6.9219141,6.5414271,6.646245,6.6699843,6.348351,6.7666316L6.1919622,8.212059H5.5441804z M5.3727474,9.3070097
			c0-0.1407843,0.0442295-0.2566652,0.132689-0.347929c0.0884595-0.0911922,0.2092032-0.1368599,0.3625541-0.1368599
			c0.1533513,0,0.2742562,0.0430279,0.3627157,0.1290112s0.132689,0.2046471,0.132689,0.3557777
			c0,0.1459932-0.0458436,0.2633018-0.1372089,0.3518534C6.1348214,9.7474155,6.0153689,9.7917986,5.8679905,9.7917986
			c-0.159162,0-0.2815204-0.0418148-0.3669124-0.1250858C5.415524,9.5833693,5.3727474,9.4633493,5.3727474,9.3070097z"/>
	</g>
</g>
</svg>
