<svg width="45" height="45" viewBox="0 0 45 45" fill="none" xmlns="http://www.w3.org/2000/svg">
<path fill-rule="evenodd" clip-rule="evenodd" d="M8.43689 -0.000132999H36.5008C41.1456 -0.000132999 44.946 3.79292 44.946 8.4305V36.4452C44.946 41.0828 41.1456 44.8759 36.5008 44.8759H8.43689C3.79203 44.8759 -0.00830078 41.0828 -0.00830078 36.4452V8.42868C-0.00830078 3.79292 3.79203 -0.00195312 8.43689 -0.00195312V-0.000132999Z" fill="#00A2F5"/>
<path fill-rule="evenodd" clip-rule="evenodd" d="M27.3885 31.0896C27.2039 30.8295 15.8593 15.2423 14.8423 13.8124H17.9486C18.7944 15.0006 27.8249 27.4328 30.4278 31.0896H27.3902H27.3885ZM10.0342 33.4055H13.2681C14.8943 31.7022 18.6065 27.8205 20.5331 25.8049C21.4175 27.0753 24.1731 30.6566 26.0728 33.4022C26.3699 33.4022 34.2625 33.4022 34.9036 33.4022C33.5962 31.5662 27.1469 23.1097 25.4234 20.6898C28.0397 17.9526 31.3726 14.4686 34.244 11.4663C33.9873 11.4663 31.0168 11.4663 31.0118 11.4663C30.5889 11.9094 25.4972 17.2343 24.1882 18.6037C23.5589 17.7126 19.1838 11.609 19.0881 11.4663H10.4554C11.2257 12.5488 18.2574 22.425 19.2291 23.7911C18.5091 24.5597 11.1603 32.2023 10.0342 33.4072V33.4055Z" fill="white"/>
</svg>
