<?xml version="1.0" encoding="utf-8"?>
<!-- Generator: Adobe Illustrator 26.3.1, SVG Export Plug-In . SVG Version: 6.00 Build 0)  -->
<svg version="1.1" id="Layer_1" xmlns="http://www.w3.org/2000/svg" xmlns:xlink="http://www.w3.org/1999/xlink" x="0px" y="0px"
	 viewBox="0 0 100 100" style="enable-background:new 0 0 100 100;" xml:space="preserve">
<style type="text/css">
	.st0{fill:#39C0C0;}
</style>
<path id="Logo" class="st0" d="M89.8,29.6c0.1,0.9,0.1,1.8,0.1,2.6c0,27.1-20.6,58.4-58.4,58.4l0,0c-11.1,0-22.1-3.2-31.5-9.2
	c1.6,0.2,3.2,0.3,4.9,0.3c9.2,0,18.2-3.1,25.5-8.8c-8.8-0.2-16.5-5.9-19.2-14.2c3.1,0.6,6.2,0.5,9.3-0.3C10.9,56.4,4,48,4,38.2v-0.3
	c2.8,1.6,6.1,2.5,9.3,2.6c-9-6-11.8-18-6.3-27.4c10.4,12.8,25.8,20.6,42.3,21.4C47.6,27.4,49.8,20,55.2,15c8.3-7.8,21.3-7.4,29,0.9
	c4.6-0.9,9-2.6,13-5c-1.5,4.8-4.7,8.8-9,11.4c4.1-0.5,8-1.6,11.8-3.2C97.2,23.1,93.8,26.7,89.8,29.6L89.8,29.6z"/>
</svg>
