<?xml version="1.0" encoding="UTF-8"?><svg id="Layer_1" xmlns="http://www.w3.org/2000/svg" viewBox="0 0 100 100"><defs><style>.cls-1{fill:#39c0c0;}</style></defs><path class="cls-1" d="M85.2,85.2h-14.8v-23.2c0-5.5-.1-12.7-7.7-12.7s-8.9,6-8.9,12.3v23.6h-14.8V37.5h14.2v6.5h.2c2.9-5,8.3-7.9,14-7.7,15,0,17.8,9.9,17.8,22.7v26.2ZM22.2,31c-4.7,0-8.6-3.8-8.6-8.6s3.8-8.6,8.6-8.6,8.6,3.8,8.6,8.6h0c0,4.7-3.8,8.6-8.6,8.6h0m7.5,54.2H14.8V37.5h14.8l.1,47.7ZM92.6,0H7.4C3.4,0,0,3.2,0,7.2H0V92.8c0,4,3.3,7.3,7.4,7.2H92.6c4,.1,7.4-3.2,7.4-7.2V7.2c-.1-4-3.4-7.3-7.4-7.2"/></svg>