<svg width="45" height="45" viewBox="0 0 45 45" fill="none" xmlns="http://www.w3.org/2000/svg">
<path fill-rule="evenodd" clip-rule="evenodd" d="M8.15398 -0.000488281H36.7985C41.2832 -0.000488281 44.9524 3.66152 44.9524 8.13893V36.7325C44.9524 41.2099 41.2832 44.8719 36.7985 44.8719H8.15398C3.66929 44.8719 0 41.2099 0 36.7325V8.13893C0 3.66152 3.66929 -0.000488281 8.15398 -0.000488281Z" fill="#184296"/>
<path fill-rule="evenodd" clip-rule="evenodd" d="M23.7577 18.1285H19.2199V33.9107C20.7355 33.9152 22.2284 33.9152 23.7349 33.9107C23.7288 31.7421 23.7304 29.1354 23.7349 26.8527C23.7395 24.8516 23.846 22.5568 26.4665 22.4579C27.0219 22.4366 27.5424 22.534 27.9532 22.7592C28.2896 22.9433 28.6198 23.307 28.8024 23.692C29.2239 24.5853 29.227 25.751 29.2285 26.8269C29.2848 29.2069 29.2817 31.7391 29.2285 33.9L33.9185 33.9183C33.9216 31.5915 33.9962 26.3886 33.9398 23.2872C33.882 22.1216 33.2003 20.3716 32.3283 19.5711C32.0392 19.3048 31.6496 19.0172 31.2889 18.8254C30.4763 18.3933 29.51 18.1254 28.428 18.1239C25.9917 18.1209 25.1441 18.5044 23.7486 20.0033C23.7486 19.3261 23.738 18.8057 23.7577 18.127V18.1285ZM11.4787 18.1285H16.2281V33.938H11.4787V18.1285ZM13.8267 10.9336C15.3926 10.9336 16.6618 12.2012 16.6618 13.7641C16.6618 15.3269 15.3926 16.5945 13.8267 16.5945C12.2608 16.5945 10.9917 15.3269 10.9917 13.7641C10.9917 12.2012 12.2608 10.9336 13.8267 10.9336Z" fill="white"/>
</svg>
