<?xml version="1.0" encoding="UTF-8"?>
<svg id="Layer_1" data-name="Layer 1" xmlns="http://www.w3.org/2000/svg" version="1.1" viewBox="0 0 100 100">
  <defs>
    <style>
      .cls-1 {
        fill: #39c0c0;
        stroke-width: 0px;
      }
    </style>
  </defs>
  <polygon class="cls-1" points="34.4 22.2 74.2 78 65.6 78 25.8 22.2 34.4 22.2"/>
  <path class="cls-1" d="M94.5,0H5.5C2.5,0,0,2.5,0,5.5v89c0,3,2.5,5.5,5.5,5.5h89c3,0,5.5-2.5,5.5-5.5V5.5c0-3-2.5-5.5-5.5-5.5ZM63,82l-17.3-24.8-21.9,24.8h-5.6l24.9-28.3L18.1,18h19l16.4,23.5,20.6-23.5h5.6l-23.8,27,26,36.9h-19Z"/>
</svg>