<?xml version="1.0" encoding="utf-8"?>
<!-- Generator: Adobe Illustrator 26.3.1, SVG Export Plug-In . SVG Version: 6.00 Build 0)  -->
<svg version="1.1" id="Layer_1" xmlns="http://www.w3.org/2000/svg" xmlns:xlink="http://www.w3.org/1999/xlink" x="0px" y="0px"
	 viewBox="0 0 800 450" style="enable-background:new 0 0 800 450;" xml:space="preserve">
<style type="text/css">
	.st0{fill:#39C0C0;}
</style>
<g>
	<path class="st0" d="M510.4,219.2c-29.1-8.9-53.9-2.6-80.7,10.1c-18,8.5-35.3,25.2-52.2,35.9c-15.5,9.7-29.8,21.5-45.8,30.2
		c-11.3,6.1-24.4,10.9-37.1,12.1c-29.6,3-46.9-24-32.4-50.2c11.9-21.4,36.8-27.5,59.5-25.7c16.2,1.3,32.1,5.5,48.3,6.6
		c4,0.3,8.2,0.3,11.9-1.4c2-0.9,4-3,5.5-5.4c3-2.9,4.7-7.3,3.9-11.3c-0.6-3.1-2.4-6-4.9-9.4c-2-2.7-4.1-5.4-6.2-8.1
		c-6.4-8-13-16.3-16.5-26.5c-4.9-14-3.1-30.3,4.9-42.6c4.9-7.5,11.9-13.5,19.7-16.9c5.7-2.5,12.2-3.7,19.1-3.7
		c5.9,0,11.9,0.9,18,2.6c6.2,1.8,11.7,4.5,16.4,8.1c24,18.2,18.5,49.1,14.4,73.7c-0.5,2.8-0.9,5.5-1.3,8.1c-0.2,1.2-0.4,2.6-0.2,3.7
		c0,0.3,0.1,0.6,0.2,0.8c0.1,0.2,0.2,0.3,0.3,0.3c0.3,0,0.9-0.1,1.3-0.3c1.8-0.7,9.7-5.6,11.7-14.1c1.5-6.4,11.3-45.8-9.4-72.3
		c-11.6-14.9-30.6-23.7-50.7-23.7c-7.3,0-14.4,1.2-21.3,3.4c-23.6,7.9-37.8,28.4-38.8,56.3c-0.6,17,7.6,30.3,16.3,44.3
		c2.1,3.4,4.2,6.8,6.3,10.4l3.2,5.5c-1.9-0.1-29.8-2.1-40.9-3.1c-10-0.9-20-1.8-30-1.2c-10.8,0.6-21.4,3-30.9,8.3
		c-25.1,14-39.9,45.5-28,72.9c8.3,19.2,27.6,29,53,27.2c16.5-1.2,31.8-6.4,45.8-14.8c16.3-10,31.8-21.4,47.9-31.6
		c15.4-9.8,30.8-19.9,47.1-28c18.6-9.2,38.8-13,59.6-9.8c16.6,2.5,29.7,10.8,37,26.2c5.3,11.1,8.4,23.5,7.1,35.8
		c-1.2,11.3-6.9,20.9-11.3,31.2c-0.5,1.3,0.7,2.5,2,2.1c5.6-1.8,10.6-5.4,14.5-9.8c9.1-10.5,13.3-25.4,13-39.1
		C559.3,258.4,536.5,227.2,510.4,219.2z"/>
	<path class="st0" d="M488.1,251.5c-1.2,0-2.4-0.1-3.6-0.1c-17.4,0-34.5,4.9-50.9,14.5c-9,5.3-17.9,11.2-26.4,16.9
		c-5.9,3.9-11.9,8-18,11.8c-5,3.1-10.1,6.6-15.1,9.9c-23.6,15.7-47.9,31.9-76.5,33.9c-2.4,0.2-4.9,0.3-7.4,0.3
		c-5.4,0-10.9-0.4-16.5-1.2c-3.9-0.6-8-1.3-12.1-2.3c-0.8-0.2-1.6-0.4-2.5-0.7c-1.8-0.5-3.7-1.1-5.2-1.1c-0.2,0-0.4,0-0.6,0
		c3.6,5.3,11,9.6,21.7,12.5c7.9,2.2,16.1,3.3,24.5,3.3c20.3,0,41.5-6.5,61.3-18.9c9.1-5.7,18.1-12.1,26.8-18.3
		c6.9-4.9,14-10,21.3-14.8c2.2-1.4,4.3-2.9,6.5-4.3c12.1-8.1,24.6-16.4,38.1-22.3c9.6-4.2,21.7-6.6,34.2-6.6c1,0,1.9,0,2.9,0
		c8.1,0.2,14.8,3,19.4,8.1c5.1,5.6,7.6,13.7,7,23.4c-0.9,14.3-7.8,25.6-19.5,31.8c-7.8,4.1-17,6.2-26.7,6.2c-4.6,0-9.2-0.5-13.8-1.4
		c-6.2-1.3-12.4-3.3-18.4-5.3c-9.7-3.2-18.8-6.2-28.2-6.2c-1.3,0-2.5,0.1-3.8,0.2c-3.7,0.3-8.9,1.5-12.4,4.9c-4,4-5.5,11.2-3.4,16.8
		c0.8,2.1,2.3,3.9,4.4,5.4c0.5,0.3,2.9,1.3,4.8,2.1c-0.2-4.3,0-9.2,2.4-12.9c1.4-2.1,4.2-4.7,9.6-4.7c2,0,4.3,0.4,6.8,1.1
		c4.4,1.2,8.7,2.9,12.8,4.4c3,1.1,6.1,2.3,9.1,3.3c9.8,3.2,19.6,4.8,29.1,4.8c1.8,0,3.6-0.1,5.4-0.2c16.1-1.1,30-6.8,39.1-16
		c8.8-8.8,14-20.9,14.6-34.1c0.6-12.5-3-23.3-10.3-31.3C511.1,256.5,500.6,252,488.1,251.5z"/>
	<path class="st0" d="M434.5,178.6c-4.7,0-8.5,3.8-8.5,8.5c0,4.7,3.8,8.5,8.5,8.5c4.7,0,8.5-3.8,8.5-8.5
		C443,182.4,439.2,178.6,434.5,178.6z"/>
	<path class="st0" d="M484.3,193.4c4.1,0,7.4-3.3,7.4-7.4c0-4.1-3.3-7.4-7.4-7.4c-4.1,0-7.4,3.3-7.4,7.4
		C476.9,190,480.2,193.4,484.3,193.4z"/>
	<path class="st0" d="M281.6,253.6c-6.7,4.9-10.9,12.6-10.7,19.6c0,2.1,0.6,4,1.5,5.6c1.5,2.4,4.1,4.1,6.7,5.5
		c0.5-6,1.2-12.5,5.8-17.5c4.1-4.4,10.1-6.2,15.5-7.3c9.2-2,18.4-2.8,27.1-2.6c3,0.1,6,0.3,8.9,0.7c0.9,0.1,1.8,0.2,2.7,0.4
		c2.4,0.3,4.8,0.7,7.1,0.7c2.1,0.1,3.9-0.1,5.5-0.5c4.6-1.1,8.5-4.2,12.1-7.5c-13.3-4.4-26.3-6.8-38.5-7.2
		c-9.1-0.3-17.8,0.6-25.9,2.5C291.9,247.8,286.1,250.3,281.6,253.6z"/>
	<path class="st0" d="M483.4,321.8c4.6-0.8,9.9-3.6,13.9-7.2c3.6-3.2,5.3-6.7,5.3-10.2c-0.1-3.8-2.3-7.7-6.4-11.3
		c-2.6,12.4-9.8,19-21.4,19.7c-0.8,0-1.6,0.1-2.4,0.1c-4.3,0-8.5-0.7-12.6-1.9c-0.9-0.3-1.8-0.6-2.8-0.9c-3.1-1.1-6.1-2.1-8.9-2.1
		c-1.8,0-3.5,0.4-5.1,1.2c-2.1,1.1-4.1,2.7-6,4.9c10.7,5.7,22.5,8.7,34.3,8.7C475.3,322.9,479.4,322.5,483.4,321.8z"/>
</g>
</svg>
